<svg viewBox="0 0 1024 1024" height="1024" width="1024" xmlns:xlink="http://www.w3.org/1999/xlink" xmlns="http://www.w3.org/2000/svg">
  <defs>
    <clipPath id="clip-path">
      <path stroke-width="1" stroke="#707070" fill="none" d="M-10485.946,11322.546l-7.47,184.963s29.522,24.9,73.273,14.938,64.381-28.811,84.655-52.287c0-1.778-28.1-21.7-39.126-48.019s-22.409-53.354-34.858-73.274-29.879-35.569-29.879-35.569Z" id="路径_1404"></path>
    </clipPath>
    <clipPath id="clip-高效">
      <rect height="1024" width="1024"></rect>
    </clipPath>
  </defs>
  <g clip-path="url(#clip-高效)" id="高效">
    <rect fill="#fff" height="1024" width="1024"></rect>
    <ellipse fill="#e1ebfa" transform="translate(274 847)" ry="41.5" rx="142.5" cy="41.5" cx="142.5" id="椭圆_798"></ellipse>
    <g transform="translate(8097 -1936)" id="组_7720">
      <g transform="translate(1366 -369)" id="组_7714">
        <path fill="#d9e7ff" transform="translate(-9354 2582)" d="M17,0H607a17,17,0,0,1,17,17V483a0,0,0,0,1,0,0H0a0,0,0,0,1,0,0V17A17,17,0,0,1,17,0Z" id="矩形_2406"></path>
        <path fill="#c6dbfc" transform="translate(-9354 2582)" d="M17,0H607a17,17,0,0,1,17,17V56a0,0,0,0,1,0,0H0a0,0,0,0,1,0,0V17A17,17,0,0,1,17,0Z" id="矩形_2407"></path>
        <circle fill="#fff" transform="translate(-9324 2600)" r="11" cy="11" cx="11" id="椭圆_706"></circle>
        <circle fill="#fff" transform="translate(-9287 2600)" r="11" cy="11" cx="11" id="椭圆_707"></circle>
        <circle fill="#fff" transform="translate(-9250 2600)" r="11" cy="11" cx="11" id="椭圆_708"></circle>
      </g>
      <g transform="translate(1418 -292.865)" id="组_7715">
        <path fill="#eef3fe" transform="translate(-9354 2581.865)" d="M17,0H670a17,17,0,0,1,17,17V466a0,0,0,0,1,0,0H0a0,0,0,0,1,0,0V17A17,17,0,0,1,17,0Z" id="矩形_2406-2"></path>
        <path fill="#2f7fff" transform="translate(-9354 2581.865)" d="M17,0H670a17,17,0,0,1,17,17V60a0,0,0,0,1,0,0H0a0,0,0,0,1,0,0V17A17,17,0,0,1,17,0Z" id="矩形_2407-2"></path>
        <circle fill="#fff" transform="translate(-9300 2603.865)" r="11" cy="11" cx="11" id="椭圆_706-2"></circle>
        <circle fill="#fff" transform="translate(-9264 2603.865)" r="11" cy="11" cx="11" id="椭圆_707-2"></circle>
        <circle fill="#fff" transform="translate(-9228 2603.865)" r="11" cy="11" cx="11" id="椭圆_708-2"></circle>
        <rect fill="#dfe3ed" transform="translate(-9143 2674.865)" rx="17" height="338" width="339" id="矩形_2411"></rect>
      </g>
      <g id="组_7717">
        <rect fill="#2f7fff" transform="translate(-7646 2193)" rx="17" height="459" width="461" id="矩形_2412"></rect>
        <path fill="#fff" transform="translate(-7601.5 2289)" d="M137.543,280.432l38.94-53.217L137.543,216v64.435ZM0,155.2l110.631,33.513L246.88,73.027,141.289,197.639l118.282,36.538L320.5,0,0,155.2Z" id="emi纸飞机"></path>
        <g transform="translate(2269.396 -793.604)" id="组_7716">
          <circle fill="#2ddb9c" transform="translate(-9558.396 2935.604)" r="73.5" cy="73.5" cx="73.5" id="椭圆_711"></circle>
          <rect fill="#fff" transform="translate(-9457.038 2971.341) rotate(45)" height="73.483" width="24.494" id="矩形_2409"></rect>
          <rect fill="#fff" transform="translate(-9474.358 3023.301) rotate(135)" height="48.989" width="24.494" id="矩形_2410"></rect>
        </g>
      </g>
      <g id="组_7718">
        <rect fill="#32db9d" transform="translate(-8028 2423)" rx="16" height="198" width="198" id="矩形_2413"></rect>
        <path fill="#fff" d="M-7990.335,2491.289l60.824,38.059,63.314-38.059-63.314-37.348Z" id="路径_1163"></path>
        <path fill="#fff" d="M-7990.335,2519.389l61.891,39.482,60.468-39.482-11.382-8.892-49.086,31.3-51.22-31.3Z" id="路径_1164"></path>
        <path fill="#fff" transform="translate(0 30)" d="M-7990.335,2519.389l61.891,39.482,60.468-39.482-11.382-8.892-49.086,31.3-51.22-31.3Z" id="路径_1165"></path>
      </g>
      <g id="组_7719">
        <path fill="#f7d335" transform="translate(-7895 2663)" d="M35.328,48.5H24.5a24,24,0,0,1,0-48h79a24,24,0,1,1,0,48H46.321l-4.61,9.042Z" id="联合_301"></path>
        <circle fill="#fff" transform="translate(-7870 2679)" r="10" cy="10" cx="10" id="椭圆_714"></circle>
        <circle fill="#fff" transform="translate(-7839 2679)" r="10" cy="10" cx="10" id="椭圆_715"></circle>
        <circle fill="#fff" transform="translate(-7808 2679)" r="10" cy="10" cx="10" id="椭圆_716"></circle>
      </g>
    </g>
    <g transform="translate(10816.413 -10732.49)" id="组_7830">
      <g id="组_7829">
        <path fill="#feaba1" d="M-10483.48,11511.444l15.278,101.521,20.223.2-5.725-93.427Z" id="路径_1405"></path>
        <path fill="#1d2786" d="M-10469.649,11607.565s7.1,7.348,20.8,2.864c.872-.5,7.721,11.458,7.846,18.806s-2.614,10.337-9.838,10.586-45.084,4.109-50.314,3.736-5.729-10.959-1.743-15.816,10.211-4.982,13.823-6.228S-10469.649,11607.565-10469.649,11607.565Z" id="路径_1406"></path>
        <path fill="#feaba1" d="M-10399.775,11514.9s21.2,16.72,38.607,33.5a415.324,415.324,0,0,1,31.01,33.625l11.209-17.934-53.3-67.375Z" id="路径_1407"></path>
        <path fill="#0f54d5" d="M-10485.946,11322.546l-7.47,184.963s29.522,24.9,73.273,14.938,64.381-28.811,84.655-52.287c0-1.778-28.1-21.7-39.126-48.019s-22.409-53.354-34.858-73.274-29.879-35.569-29.879-35.569Z" id="路径_1401"></path>
        <g clip-path="url(#clip-path)" id="蒙版组_16">
          <path fill="#0b52ba" d="M-10455.356,11313.3c1.778,2.846,23.121,30.234,33.436,53.354s18.5,61.535,23.831,70.428,24.543,47.664,43.751,55.489,24.543-17.073,24.543-17.073.711-17.43-1.423-17.43-25.254-64.381-26.677-65.8-36.281-62.247-36.281-62.247l-40.905-36.992Z" id="路径_1402"></path>
          <path fill="#073fbe" d="M-10496.974,11478.341s28.813,17.429,61.536,14.939,80.032-35.925,83.944-43.395,24.9,15.295,24.9,15.295-2.489,21.343-2.489,22.409-44.463,36.637-44.463,36.637l-48.019,8.892-44.462,2.135-53.711-17.785Z" id="路径_1403"></path>
        </g>
        <path fill="#1d2786" d="M-10337.242,11577.079s9.2-.768,12.933-7.09,3.928-7.855,3.928-7.855,15.425,12.935,15.9,17.628-1.629,26.344-7.568,33.721c-5.874,7.3-16.058,14.779-29.265,10.3l-.146-.052c-13.125-4.694,1.438-25.676,2.97-28.453S-10337.242,11577.079-10337.242,11577.079Z" id="路径_1408"></path>
      </g>
      <g id="组_7827">
        <path fill="#0441bb" d="M-10455.017,11160.664s-17.512-6.019-26.814,8.482-14.228,33.107-16.964,47.062-.82,39.947,2.736,45.967,58.943,53.416,58.943,53.9,10.2,10.2,24.771-.81,17.486-22.5,12.629-37.723-19.266-27.038-21.856-38.209,3.237-34.161,4.856-41.608-.972-24.448-12.79-33.028S-10455.017,11160.664-10455.017,11160.664Z" id="路径_1393"></path>
        <path fill="#ef8d91" d="M-10472.63,11219.367v12.454l-4.857,2.864v13.45l1.868,8.967,15.816-6.1,3.736-17.436v-24.907Z" id="路径_1395"></path>
        <path fill="#fda9ac" d="M-10477.86,11179.141c.249.125,5.106,2.615,15.567,0-1.121,4.857,2.74,15.443,12.7,16.938,5.978-.747,7.6,7.722,4.234,10.835s-9.714,2.117-9.714,2.117-5.107,8.843-12.081,10.96-15.068,2.738-18.307-4.982S-10482.593,11187.983-10477.86,11179.141Z" id="路径_1394"></path>
      </g>
      <g id="组_7828">
        <path fill="#f6afa1" d="M-10561.513,11298.881s-13.892-4.79-18.394-14.753-4.023-14.274-1.054-17.627,9.293-.383,11.113,2.4,3.544,7.186,6.227,10.825,9.867,8.43,9.867,8.43Z" id="路径_1397"></path>
        <path fill="#fb7600" d="M-10495.727,11276.414s-7.285,15.219-25.58,15.219a113.862,113.862,0,0,1-34.161-5.667s-4.646,2.4-6.428,5.635-.7,7.8-.7,7.8,29.143,14.895,43.552,12.628,32.38-17.161,32.38-17.161Z" id="路径_1396"></path>
        <path fill="#fea90a" d="M-10476.506,11231.962l1.246,20.922,20.922-18.681s16.752-.448,20.737.8,7.543,7.276,5.675,17.612-9.723,57.81-10.1,59.553-6.1,11.457-24.908,12.827-24.534-1.618-24.534-1.618v-23.912c0-4.234-9.96-12.428-9.812-27.829s4.791-20.339,7.664-25.719,4.568-11.79,6.484-13.043S-10476.506,11231.962-10476.506,11231.962Z" id="路径_1398"></path>
        <path fill="#f6afa1" d="M-10546.342,11287.534s-15.254-9.433-19.012-19.676-3.463-19.307.147-20.854,14.222,4.054,18.2,13.928,6.338,16.654,6.338,16.654Z" id="路径_1400"></path>
        <path fill="#fe8a05" d="M-10443.379,11239.809c2.126-2.749,7.722-6.352,11.831,0s-.25,19.554-1.993,24.784-21.412,36.231-27.149,43.588-10.338,10.337-25.157,6.726-54.548-21.421-59.031-23.04-1.619-9.465,0-12.578,5.978-4.11,8.718-2.989,46.454,16.813,51.56,18.059,10.213,2.116,12.952-2.491S-10445.5,11242.558-10443.379,11239.809Z" id="路径_1399"></path>
      </g>
    </g>
  </g>
</svg>
