<svg viewBox="0 0 1024 1024" height="1024" width="1024" xmlns:xlink="http://www.w3.org/1999/xlink" xmlns="http://www.w3.org/2000/svg">
  <defs>
    <filter filterUnits="userSpaceOnUse" height="176" width="176" y="262.268" x="761.396" id="椭圆_717">
      <feOffset></feOffset>
      <feGaussianBlur result="blur" stdDeviation="6"></feGaussianBlur>
      <feFlood flood-opacity="0.161" flood-color="#012657"></feFlood>
      <feComposite in2="blur" operator="in"></feComposite>
      <feComposite in="SourceGraphic"></feComposite>
    </filter>
    <filter filterUnits="userSpaceOnUse" height="175.646" width="192.293" y="333.314" x="639.096" id="路径_1169">
      <feOffset></feOffset>
      <feGaussianBlur result="blur-2" stdDeviation="6"></feGaussianBlur>
      <feFlood flood-opacity="0.161" flood-color="#012657"></feFlood>
      <feComposite in2="blur-2" operator="in"></feComposite>
      <feComposite in="SourceGraphic"></feComposite>
    </filter>
    <clipPath id="clip-path">
      <path stroke-width="1" stroke="#707070" fill="none" transform="translate(10493.415 -11313.298)" d="M-10342.956,11322.546l7.47,184.963s-29.522,24.9-73.273,14.938-64.381-28.811-84.655-52.287c0-1.778,28.1-21.7,39.126-48.019s22.409-53.354,34.858-73.274,29.879-35.569,29.879-35.569Z" id="路径_1404"></path>
    </clipPath>
    <clipPath id="clip-安全">
      <rect height="1024" width="1024"></rect>
    </clipPath>
  </defs>
  <g clip-path="url(#clip-安全)" id="安全">
    <rect fill="#fff" height="1024" width="1024"></rect>
    <g transform="translate(4822.396 -2652.746)" id="组_7724">
      <rect fill="#d9e7ff" transform="translate(-4761 2850)" rx="43" height="494" width="640" id="矩形_2421"></rect>
      <rect fill="#eef4ff" transform="translate(-4708 2905)" rx="43" height="494" width="737" id="矩形_2422"></rect>
      <g stroke-width="4" stroke="#fbd635" fill="none" transform="translate(-4649 3273)" id="椭圆_721">
        <circle stroke="none" r="47.5" cy="47.5" cx="47.5"></circle>
        <circle fill="none" r="45.5" cy="47.5" cx="47.5"></circle>
      </g>
      <circle fill="#fbd635" transform="translate(-4639 3283)" r="37.5" cy="37.5" cx="37.5" id="椭圆_722"></circle>
      <rect fill="#d1d7e5" transform="translate(-4649 2970)" height="15" width="168" id="矩形_2423"></rect>
      <rect fill="#d1d7e5" transform="translate(-4649 2999)" height="15" width="326" id="矩形_2424"></rect>
      <rect fill="#d1d7e5" transform="translate(-4649 3028)" height="15" width="326" id="矩形_2425"></rect>
    </g>
    <g transform="translate(6526.038 -2179.656)" id="组_7725">
      <path fill="#307eff" transform="translate(-5963 2303)" d="M30.025,0H273.772s24.864-1.244,37.935,11.637S377.2,74.818,387.991,88.109s11.575,22.342,11.575,38.925V465.395a30.025,30.025,0,0,1-30.025,30.025H30.025A30.025,30.025,0,0,1,0,465.395V30.03A30.025,30.025,0,0,1,30.025,0Z" id="路径_1167"></path>
      <rect fill="#fff" transform="translate(-5892.642 2413.924)" height="162" width="162" id="矩形_2415"></rect>
      <g filter="url(#椭圆_717)" transform="matrix(1, 0, 0, 1, -6526.04, 2179.66)">
        <circle fill="#b1cdff" transform="translate(779.4 280.27)" r="70" cy="70" cx="70" id="椭圆_717-2"></circle>
      </g>
      <g filter="url(#路径_1169)" transform="matrix(1, 0, 0, 1, -6526.04, 2179.66)">
        <path fill="#b1cdff" transform="translate(6852.4 -2218.73)" d="M-6118.079,2570.046l-77.221,139.646h156.292Z" id="路径_1169-2"></path>
      </g>
    </g>
    <g transform="translate(4822.396 -2652.746)" id="组_7726">
      <path fill="#2ed79c" d="M-4256.445,3098.118c-5.392,4.441-44.75,28.435-88.782,24.045.034,15.082,2.524,50.3-7.08,89.067s-2.846,77.186,38.985,88.959,56.876,20.346,56.876,20.346,28.919-14.62,52.252-20.346,50.365-24.933,44.318-72.952-12.8-61.18-10.563-105.074C-4185.225,3122.344-4235.637,3119.389-4256.445,3098.118Z" id="路径_1171"></path>
      <path fill="#fff" transform="translate(-4291 3139)" d="M11,53H0V32A32.008,32.008,0,0,1,61.485,19.544,31.8,31.8,0,0,1,64,32V53H53V31a21,21,0,0,0-42,0V53Z" id="减去_4"></path>
      <path fill="#fff" transform="translate(-4302 3179)" d="M0,0H86a0,0,0,0,1,0,0V50A43,43,0,0,1,43,93h0A43,43,0,0,1,0,50V0A0,0,0,0,1,0,0Z" id="矩形_2426"></path>
      <path fill="#d3d4d7" transform="translate(-4272 3193)" d="M0,45.769l6.023-22.4a12.5,12.5,0,1,1,14.263-.215l6.792,22.611Z" id="联合_303"></path>
    </g>
    <ellipse fill="#e1ebfa" transform="translate(170.382 817.684)" ry="41.5" rx="142.5" cy="41.5" cx="142.5" id="椭圆_798"></ellipse>
    <g transform="translate(217.382 397.62)" id="组_7830">
      <g transform="translate(0 153.872)" id="组_7829">
        <path fill="#feaba1" transform="translate(10627.048 -11313.298)" d="M-10447.98,11511.444l-15.278,101.521-20.223.2,5.725-93.427Z" id="路径_1405"></path>
        <path fill="#1d2786" transform="translate(10642.126 -11313.298)" d="M-10476.89,11607.565s-7.1,7.348-20.8,2.864c-.872-.5-7.721,11.458-7.846,18.806s2.614,10.337,9.838,10.586,45.084,4.109,50.314,3.736,5.729-10.959,1.743-15.816-10.211-4.982-13.823-6.228S-10476.89,11607.565-10476.89,11607.565Z" id="路径_1406"></path>
        <path fill="#feaba1" transform="translate(10414.312 -11313.298)" d="M-10318.949,11514.9s-21.2,16.72-38.607,33.5a415.324,415.324,0,0,0-31.01,33.625l-11.209-17.934,53.3-67.375Z" id="路径_1407"></path>
        <path fill="#0f54d5" transform="translate(10524.489 -11313.298)" d="M-10342.956,11322.546l7.47,184.963s-29.522,24.9-73.273,14.938-64.381-28.811-84.655-52.287c0-1.778,28.1-21.7,39.126-48.019s22.409-53.354,34.858-73.274,29.879-35.569,29.879-35.569Z" id="路径_1401"></path>
        <g clip-path="url(#clip-path)" transform="translate(31.074)" id="蒙版组_16">
          <path fill="#0b52ba" transform="translate(10449.552 -11313.298)" d="M-10329.683,11313.3c-1.778,2.846-23.121,30.234-33.436,53.354s-18.5,61.535-23.831,70.428-24.543,47.664-43.751,55.489-24.543-17.073-24.543-17.073-.711-17.43,1.423-17.43,25.254-64.381,26.677-65.8,36.281-62.247,36.281-62.247l40.905-36.992Z" id="路径_1402"></path>
          <path fill="#073fbe" transform="translate(10510.845 -11313.298)" d="M-10349.358,11478.341s-28.812,17.429-61.536,14.939-80.032-35.925-83.944-43.395-24.9,15.295-24.9,15.295,2.489,21.343,2.489,22.409,44.463,36.637,44.463,36.637l48.019,8.892,44.462,2.135,53.711-17.785Z" id="路径_1403"></path>
        </g>
        <path fill="#1d2786" transform="translate(10346.896 -11313.298)" d="M-10314.066,11577.079s-9.2-.768-12.933-7.09-3.928-7.855-3.928-7.855-15.425,12.935-15.9,17.628,1.629,26.344,7.568,33.721c5.874,7.3,16.058,14.779,29.265,10.3l.146-.052c13.125-4.694-1.437-25.676-2.97-28.453S-10314.066,11577.079-10314.066,11577.079Z" id="路径_1408"></path>
      </g>
      <g transform="translate(93.133)" id="组_7827">
        <path fill="#0441bb" transform="translate(10500.091 -11159.426)" d="M-10442.62,11160.664s17.512-6.019,26.814,8.482,14.228,33.107,16.964,47.062.82,39.947-2.736,45.967-58.943,53.416-58.943,53.9-10.2,10.2-24.771-.81-17.486-22.5-12.629-37.723,19.266-27.038,21.856-38.209-3.237-34.161-4.856-41.608.972-24.448,12.79-33.028S-10442.62,11160.664-10442.62,11160.664Z" id="路径_1393"></path>
        <path fill="#ef8d91" transform="translate(10536.009 -11159.426)" d="M-10460.925,11219.367v12.454l4.857,2.864v13.45l-1.868,8.967-15.816-6.1-3.736-17.436v-24.907Z" id="路径_1395"></path>
        <path fill="#fda9ac" transform="translate(10532.446 -11159.426)" d="M-10452.132,11179.141c-.249.125-5.106,2.615-15.567,0,1.121,4.857-2.74,15.443-12.7,16.938-5.978-.747-7.6,7.722-4.234,10.835s9.714,2.117,9.714,2.117,5.107,8.843,12.081,10.96,15.068,2.738,18.307-4.982S-10447.4,11187.983-10452.132,11179.141Z" id="路径_1394"></path>
      </g>
      <g transform="translate(123.001 72.493)" id="组_7828">
        <path fill="#f6afa1" transform="translate(10709.578 -11231.919)" d="M-10575.479,11298.881s13.892-4.79,18.394-14.753,4.023-14.274,1.054-17.627-9.293-.383-11.113,2.4-3.544,7.186-6.227,10.825-9.867,8.43-9.867,8.43Z" id="路径_1397"></path>
        <path fill="#fb7600" transform="translate(10622.164 -11231.919)" d="M-10553.852,11276.414s7.285,15.219,25.58,15.219a113.862,113.862,0,0,0,34.161-5.667s4.646,2.4,6.428,5.635.7,7.8.7,7.8-29.143,14.895-43.552,12.628-32.38-17.161-32.38-17.161Z" id="路径_1396"></path>
        <path fill="#fea90a" transform="translate(10497.279 -11231.919)" d="M-10448.187,11231.962l-1.246,20.922-20.922-18.681s-16.752-.448-20.737.8-7.543,7.276-5.675,17.612,9.723,57.81,10.1,59.553,6.1,11.457,24.908,12.827,24.534-1.618,24.534-1.618v-23.912c0-4.234,9.96-12.428,9.813-27.829s-4.791-20.339-7.664-25.719-4.568-11.79-6.484-13.043S-10448.187,11231.962-10448.187,11231.962Z" id="路径_1398"></path>
        <path fill="#f6afa1" transform="translate(10681.297 -11231.919)" d="M-10562.369,11287.534s15.254-9.433,19.012-19.676,3.463-19.307-.147-20.854-14.222,4.054-18.2,13.928-6.338,16.654-6.338,16.654Z" id="路径_1400"></path>
        <path fill="#fe8a05" transform="translate(10549.705 -11231.919)" d="M-10533.74,11239.809c-2.126-2.749-7.722-6.352-11.831,0s.25,19.554,1.993,24.784,21.412,36.231,27.149,43.588,10.338,10.337,25.157,6.726,54.548-21.421,59.031-23.04,1.619-9.465,0-12.578-5.978-4.11-8.718-2.989-46.454,16.813-51.56,18.059-10.213,2.116-12.952-2.491S-10531.614,11242.558-10533.74,11239.809Z" id="路径_1399"></path>
      </g>
    </g>
  </g>
</svg>
