<svg viewBox="0 0 1024 1024" height="1024" width="1024" xmlns:xlink="http://www.w3.org/1999/xlink" xmlns="http://www.w3.org/2000/svg">
  <defs>
    <clipPath id="clip-path">
      <path stroke-width="1" stroke="#707070" fill="none" transform="translate(10807.161 -10628.578)" d="M-10717.733,10628.578c-1.4,1.754-11.92,56.8-14.024,77.135s-11.57,55.4-31.2,98.17a457.193,457.193,0,0,1-44.2,75.431s8.9,30.745,24.812,40.994,35.331,11.058,36.68,9.17,35.869-69.312,45.849-103.834,19.957-77.4,19.957-77.4h3.776a660.52,660.52,0,0,1,2.534,71.768c-.7,40.67-4.368,103.079-2.534,104.481s13.4,7.172,28.129,4.988,28.049-10.6,28.049-10.6-.7-144.8-6.311-181.265-25.595-109.036-25.595-109.036Z" id="路径_1351"></path>
    </clipPath>
    <clipPath id="clip-path-2">
      <path fill="#abd7ff" transform="translate(10716.896 -10613.432)" d="M-10715.857,10613.432s15.865,10.009,33.807,8.781,29.367-8.781,29.367-8.781l3.115,16.053s-14.447,12.653-33.711,11.426-33.616-13.031-33.616-13.031Z" id="路径_1344"></path>
    </clipPath>
    <clipPath id="clip-客服">
      <rect height="1024" width="1024"></rect>
    </clipPath>
  </defs>
  <g clip-path="url(#clip-客服)" id="客服">
    <rect fill="#fff" height="1024" width="1024"></rect>
    <ellipse fill="#e1ebfa" transform="translate(83 795.838)" ry="41.5" rx="142.5" cy="41.5" cx="142.5" id="椭圆_798"></ellipse>
    <rect fill="#d9e7fe" transform="translate(74.491 264.868)" rx="21" height="467" width="716" id="矩形_2391"></rect>
    <g transform="translate(147.586 145.162)" id="组_7730">
      <g stroke-width="2" stroke="#fff" fill="#e6eefd" transform="translate(-0.095)" id="矩形_2392">
        <path stroke="none" d="M21,0H706a21,21,0,0,1,21,21V514a0,0,0,0,1,0,0H0a0,0,0,0,1,0,0V21A21,21,0,0,1,21,0Z"></path>
        <path fill="none" d="M21,1H706a20,20,0,0,1,20,20V513a0,0,0,0,1,0,0H1a0,0,0,0,1,0,0V21A20,20,0,0,1,21,1Z"></path>
      </g>
      <path fill="#2f7ffd" transform="translate(1.905 2)" d="M19,0H704a19,19,0,0,1,19,19V89a0,0,0,0,1,0,0H0a0,0,0,0,1,0,0V19A19,19,0,0,1,19,0Z" id="矩形_2393"></path>
      <circle fill="#fff" transform="translate(48.905 32)" r="16.5" cy="16.5" cx="16.5" id="椭圆_695"></circle>
      <ellipse fill="#fff" transform="translate(639.905 32)" ry="16.5" rx="17" cy="16.5" cx="17" id="椭圆_696"></ellipse>
    </g>
    <ellipse fill="#fff" transform="translate(265.491 304.162)" ry="140.5" rx="140" cy="140.5" cx="140" id="椭圆_729"></ellipse>
    <circle fill="#eef2fe" transform="translate(305.491 344.162)" r="100" cy="100" cx="100" id="椭圆_730"></circle>
    <g transform="translate(317.398 356.268)" id="客服_3_">
      <path fill="#2f7ffd" transform="translate(-228.549 -167.013)" d="M316.469,189.495c-27.425,0-49.653,21.761-49.653,48.613s22.228,48.612,49.653,48.612,49.654-21.764,49.654-48.612-22.228-48.613-49.654-48.613Zm0,0" id="路径_1175"></path>
      <path fill="#2f7ffd" transform="translate(-109.144 -79.341)" d="M139.729,169.095v-44.88q-.943,0-1.867.075a65.514,65.514,0,0,1,118.419,0q-.924-.074-1.867-.075v44.88a22.7,22.7,0,0,0,22.939-22.439,22.362,22.362,0,0,0-11.746-19.59c-9.861-27.775-36.781-47.726-68.534-47.726S138.4,99.289,128.538,127.063a22.36,22.36,0,0,0-11.747,19.591,22.692,22.692,0,0,0,22.938,22.44Zm0,0" id="路径_1176"></path>
      <path fill="#2f7ffd" transform="translate(-79.325 -529.679)" d="M216.793,645.161a73.78,73.78,0,0,1-99.025.066C94.561,656.918,79.325,677.727,79.325,706H255.767c0-28.321-15.521-49.155-38.974-60.834Zm0,0" id="路径_1177"></path>
    </g>
    <g transform="translate(727.358 264.866)" id="组_7731">
      <path fill="#307eff" transform="translate(0 0)" d="M74.948,116.529H0L32.528,92.453V15a15,15,0,0,1,15-15H207.15a15,15,0,0,1,15,15v86.528a15,15,0,0,1-15,15Z" id="联合_306"></path>
      <rect fill="#fff" transform="translate(55.133 35.296)" height="12" width="148" id="矩形_2442"></rect>
      <rect fill="#fff" transform="translate(55.133 69.296)" height="12" width="148" id="矩形_2443"></rect>
    </g>
    <g transform="translate(561.043 428.006)" id="组_7732">
      <path fill="#2ddb9c" transform="translate(0 0)" d="M74.948,116.527H0L32.528,92.45V15a15,15,0,0,1,15-15H373.467a15,15,0,0,1,15,15v86.528a15,15,0,0,1-15,15Z" id="联合_306-2"></path>
      <rect fill="#fff" transform="translate(54.448 35.156)" height="13" width="304" id="矩形_2442-2"></rect>
      <rect fill="#fff" transform="translate(54.448 69.156)" height="12" width="304" id="矩形_2443-2"></rect>
    </g>
    <g transform="translate(6886 -14002.839)" id="组_7707">
      <circle fill="#307eff" transform="translate(-6374 14588)" r="78" cy="78" cx="78" id="椭圆_700"></circle>
      <rect fill="#fff" transform="translate(-6270.472 14621.808) rotate(45)" height="98.6" width="25.947" id="矩形_2404"></rect>
      <rect fill="#fff" transform="translate(-6252.125 14691.528) rotate(135)" height="98.6" width="25.947" id="矩形_2405"></rect>
    </g>
    <g transform="translate(10935.988 -10123.225)" id="组_7818">
      <g transform="translate(-10819.653 10625.7)" id="组_7817">
        <path fill="#1f2289" transform="translate(10819.653 -10632.479)" d="M-10799.262,10901.287c-.479.159-3.99,5.905-12.129,9.256s-10.372,9.416-6.224,18.033,20.585,31.12,27.129,35.907,24.1,9.415,19.789-5.586-11.171-21.7-10.692-28.247.958-11.809.958-11.809Z" id="路径_1352"></path>
        <path fill="#1f2289" transform="translate(10817.465 -10632.813)" d="M-10662.7,10930.666s.8,15.162,0,18.354-8.457,16.117,0,19.947,41.65,9.575,51.066,8.777,18.193-3.989,13.087-13.405-22.183-7.5-30.641-15.319-10.214-24.418-10.214-24.418Z" id="路径_1353"></path>
        <path fill="#0640be" transform="translate(10819.475 -10628.578)" d="M-10717.733,10628.578c-1.4,1.754-11.92,56.8-14.024,77.135s-11.57,55.4-31.2,98.17a457.193,457.193,0,0,1-44.2,75.431s8.9,30.745,24.812,40.994,35.331,11.058,36.68,9.17,35.869-69.312,45.849-103.834,19.957-77.4,19.957-77.4h3.776a660.52,660.52,0,0,1,2.534,71.768c-.7,40.67-4.368,103.079-2.534,104.481s13.4,7.172,28.129,4.988,28.049-10.6,28.049-10.6-.7-144.8-6.311-181.265-25.595-109.036-25.595-109.036Z" id="路径_1348"></path>
        <g clip-path="url(#clip-path)" transform="translate(12.314)" id="蒙版组_10">
          <path fill="#03369f" transform="translate(10805.294 -10628.558)" d="M-10655.907,10632.061s4.909,52.241,0,89.756-16.83,82.394-16.83,82.394l-3.856-55.4s10.168-63.11,10.519-75.732,0-45.929,0-45.929Z" id="路径_1350"></path>
          <path fill="#192988" transform="translate(10805.247 -10628.629)" d="M-10673.392,10635.988v60.3l9.816-12.271v-51.891Z" id="路径_1349"></path>
        </g>
      </g>
      <g transform="translate(-10812.073 10427.386)" id="组_7815">
        <path fill="#1b258c" transform="translate(10811.963 -10427.385)" d="M-10687.739,10429.261s-15.372-5.665-27.239,2.7-18.609,30.477-20.227,42.612-12.035,76.649-21.606,91.234-24.158,46.491-55.151,62.9c2.279,21.422,15.5,45.123,41.021,55.606s59.254,11.851,59.254,11.851l50.593-173.657s10.793-30.6,3.324-66.282S-10687.739,10429.261-10687.739,10429.261Z" id="路径_1335"></path>
        <path fill="#e86f5f" transform="translate(10810.309 -10428.261)" d="M-10696.313,10488.595v22.661h18.192v-15.8Z" id="路径_1336"></path>
        <path fill="#fdaaa6" transform="translate(10810.483 -10427.766)" d="M-10681.487,10453.948c-.319,4.947-7.021,12.768-18.991,15.8-8.3-3.83-8.937,5.585-7.34,9.255s6.382,6.225,9.255,6.225c-.638,1.6,10.374,17.873,22.023,16.437s11.809-7.341,12.287-12.288.64-22.5-.957-25.533C-10664.891,10463.684-10676.222,10462.247-10681.487,10453.948Z" id="路径_1337"></path>
        <path fill="#b3d4ff" transform="translate(10810.368 -10428.528)" d="M-10700.444,10507.274h25.621v14.024h-25.621Z" id="路径_1338"></path>
        <path fill="#fff" transform="translate(10810.392 -10428.708)" d="M-10702.086,10519.86h29.666l1.889,43.422-19.149-10.519Z" id="路径_1339"></path>
      </g>
      <g transform="translate(-10762.058 10518.617)" id="组_7816">
        <path fill="#fcab9e" transform="translate(10760.71 -10521.894)" d="M-10725.448,10669.22s3.56,5.523,3.8,6.506,0,11.049,0,18.782,17.309,18.414,17.923.245-1.473-25.165-2.7-26.883-11.907-11.417-11.907-11.417Z" id="路径_1346"></path>
        <path fill="#fcab9e" transform="translate(10758.07 -10520.935)" d="M-10539.4,10596.376s15.581-7.459,23.7-6.987,15.676.282,16.147,4.721-2.739,12.087-20.113,12.56-21.248-.661-21.248-.661Z" id="路径_1347"></path>
        <path fill="#fb7e00" transform="translate(10759.737 -10520.011)" d="M-10657.213,10524.822c3.735-.207,22.2,27.179,28.63,34.854s17.636,28.007,39.418,30.911,47.716,1.452,47.716,1.452,8.3,11,0,18.671c-5.187.415-43.981,2.49-62.238-3.111s-46.471-30.7-46.471-30.7S-10659.08,10525.237-10657.213,10524.822Z" id="路径_1340"></path>
        <path fill="#ffaa01" transform="translate(10760.71 -10519.941)" d="M-10675,10519.986c-.466-.062,2.905,38.38,2.905,38.38l-28.63-38.38s-15.975,2.281-22.406,8.091,2.49,37.551,3.32,44.812,4.563,39.625,4.563,39.625l19.295,11.41,30.081-2.074,12.24-4.563s.415-20.124,2.7-26.141,11.162-25.706,3.8-44.781-9.536-21.435-11.048-23.229S-10670.929,10519.641-10675,10519.986Z" id="路径_1341"></path>
        <path fill="#4c9df7" transform="translate(10760.588 -10521.278)" d="M-10715.857,10613.432s15.865,10.009,33.807,8.781,29.367-8.781,29.367-8.781l3.115,16.053s-14.447,12.653-33.711,11.426-33.616-13.031-33.616-13.031Z" id="路径_1342"></path>
        <g clip-path="url(#clip-path-2)" transform="translate(43.692 92.153)" id="蒙版组_9">
          <path fill="#abd7ff" transform="translate(10716.429 -10613.495)" d="M-10684.264,10621.428l1.074,21.341,17.469-2.077v-22.853Z" id="路径_1343"></path>
        </g>
        <path fill="#fd8500" transform="translate(10761.222 -10520.032)" d="M-10721.053,10526.313c.245-.369,7,2.946,7.366,12.767s-.492,16.817-9.453,25.41-16.449,23.448-17.062,38.179,6.138,27.62,14.854,39.159,8.593,11.908,8.839,13.872-3.806,14.486-10.312,12.521-27.867-31.672-32.163-49.84-2.947-36.337,8.838-55.732S-10726.208,10529.013-10721.053,10526.313Z" id="路径_1345"></path>
      </g>
    </g>
  </g>
</svg>
