<?xml version="1.0" standalone="no"?><!DOCTYPE svg PUBLIC "-//W3C//DTD SVG 1.1//EN" "http://www.w3.org/Graphics/SVG/1.1/DTD/svg11.dtd"><svg height="1024" node-id="1" sillyvg="true" template-height="1024" template-width="1024" version="1.1" viewBox="0 0 1024 1024" width="1024" xmlns="http://www.w3.org/2000/svg" xmlns:xlink="http://www.w3.org/1999/xlink"><defs node-id="92"><filter height="172" id="矩形_2394" node-id="3" width="171" x="374" y="360.581"><feOffset color-interpolation-filters="linearRGB" dx="0" dy="0" in="SourceGraphic" result="result1"></feOffset><feGaussianBlur color-interpolation-filters="linearRGB" in="result1" result="blur" stdDeviation="6 6"></feGaussianBlur><feFlood color-interpolation-filters="linearRGB" flood-color="#92acc1" flood-opacity="0.161" result="result3"></feFlood><feComposite color-interpolation-filters="linearRGB" in="result3" in2="blur" operator="in" result="result4"></feComposite><feComposite color-interpolation-filters="linearRGB" in="SourceGraphic" in2="result4" operator="over" result="result5"></feComposite></filter><filter height="158.02902" id="路径_1157" node-id="9" width="170.65198" x="391.502" y="461.329"><feOffset color-interpolation-filters="linearRGB" dx="0" dy="0" in="SourceGraphic" result="result1"></feOffset><feGaussianBlur color-interpolation-filters="linearRGB" in="result1" result="blur-2" stdDeviation="6 6"></feGaussianBlur><feFlood color-interpolation-filters="linearRGB" flood-color="#92acc1" flood-opacity="0.161" result="result3"></feFlood><feComposite color-interpolation-filters="linearRGB" in="result3" in2="blur-2" operator="in" result="result4"></feComposite><feComposite color-interpolation-filters="linearRGB" in="SourceGraphic" in2="result4" operator="over" result="result5"></feComposite></filter><filter height="175" id="椭圆_701" node-id="15" width="175" x="497" y="397.581"><feOffset color-interpolation-filters="linearRGB" dx="0" dy="0" in="SourceGraphic" result="result1"></feOffset><feGaussianBlur color-interpolation-filters="linearRGB" in="result1" result="blur-3" stdDeviation="6 6"></feGaussianBlur><feFlood color-interpolation-filters="linearRGB" flood-color="#92acc1" flood-opacity="0.161" result="result3"></feFlood><feComposite color-interpolation-filters="linearRGB" in="result3" in2="blur-3" operator="in" result="result4"></feComposite><feComposite color-interpolation-filters="linearRGB" in="SourceGraphic" in2="result4" operator="over" result="result5"></feComposite></filter><clipPath id="clip-合作" node-id="25"><path d="M 0.00 0.00 L 1024.00 0.00 L 1024.00 1024.00 L 0.00 1024.00 Z" fill="#000000" fill-rule="nonzero" node-id="131" stroke="none" target-height="1024" target-width="1024" target-x="0" target-y="0"></path></clipPath><clipPath id="clip-path" node-id="21"><path d="M 344.50 387.60 L 350.50 389.70 L 353.00 390.20 L 358.60 390.30 L 361.40 389.70 L 363.20 388.90 L 366.60 386.30 L 369.00 386.10 L 380.30 387.10 L 386.00 388.20 L 389.70 389.40 L 394.00 392.20 L 396.50 394.10 L 400.30 398.30 L 402.50 402.70 L 404.30 407.90 L 405.70 413.50 L 406.50 420.90 L 406.50 425.40 L 405.50 456.10 L 405.50 503.70 L 405.90 515.30 L 406.70 527.80 L 410.30 565.50 L 400.20 570.60 L 389.30 574.70 L 383.00 576.40 L 376.10 577.60 L 371.40 578.10 L 361.70 577.80 L 355.60 576.90 L 344.40 574.40 L 336.70 572.00 L 330.30 569.70 L 324.50 567.30 L 317.20 563.70 L 318.70 522.50 L 318.80 493.40 L 318.20 483.20 L 316.70 471.70 L 314.60 460.20 L 311.50 445.70 L 311.00 441.40 L 310.50 431.60 L 310.40 420.80 L 310.80 410.70 L 311.50 402.60 L 312.10 399.60 L 312.60 398.20 L 313.50 396.90 L 317.50 393.70 L 320.20 392.30 L 328.00 389.70 L 332.50 388.70 L 344.50 387.60 Z" fill="#000000" fill-rule="nonzero" id="路径_1362" node-id="22" stroke="none" target-height="191.99997" target-width="99.899994" target-x="310.4" target-y="386.1"></path></clipPath><clipPath id="clip-path-2" node-id="23"><path d="M 319.90 560.80 L 322.50 693.00 L 324.80 732.70 L 330.30 802.40 L 382.40 802.40 L 377.20 715.10 L 386.20 739.80 L 397.70 769.20 L 406.40 788.30 L 410.50 795.20 L 412.80 797.60 L 414.40 798.10 L 416.40 798.30 L 419.00 797.90 L 422.90 796.80 L 427.60 794.80 L 437.10 789.80 L 446.00 784.30 L 454.90 778.00 L 442.40 748.50 L 435.30 730.20 L 428.60 710.30 L 423.20 690.70 L 419.70 672.60 L 417.60 653.20 L 417.00 643.30 L 416.70 612.10 L 415.70 601.20 L 413.90 589.00 L 411.70 577.10 L 409.50 567.10 L 407.60 560.90 L 407.00 560.20 L 405.70 559.60 L 403.10 559.00 L 398.80 558.50 L 386.30 558.00 L 362.80 558.40 L 319.90 560.80 Z" fill="#000000" fill-rule="nonzero" id="路径_1367" node-id="24" stroke="none" target-height="244.40002" target-width="135" target-x="319.9" target-y="558"></path></clipPath></defs><g clip-path="url(#clip-合作)" id="合作" node-id="27"><path d="M 0.00 0.00 L 1024.00 0.00 L 1024.00 1024.00 L 0.00 1024.00 Z" fill="#ffffff" fill-rule="nonzero" node-id="142" stroke="none" target-height="1024" target-width="1024" target-x="0" target-y="0"></path><path d="M 512.00 844.90 L 511.70 847.50 L 510.90 850.10 L 509.50 852.70 L 507.50 855.30 L 504.70 858.00 L 501.10 860.90 L 496.60 863.70 L 491.10 866.60 L 484.50 869.40 L 470.80 874.10 L 453.70 878.40 L 441.80 880.70 L 428.80 882.70 L 414.50 884.30 L 400.30 885.40 L 385.30 886.20 L 369.50 886.40 L 353.70 886.20 L 338.70 885.40 L 324.50 884.30 L 310.20 882.70 L 297.20 880.70 L 285.30 878.40 L 268.20 874.10 L 254.50 869.40 L 247.90 866.60 L 242.40 863.70 L 237.90 860.90 L 234.30 858.00 L 231.50 855.30 L 229.50 852.70 L 228.10 850.10 L 227.30 847.50 L 227.00 844.90 L 227.30 842.30 L 228.10 839.80 L 229.50 837.20 L 231.50 834.50 L 234.30 831.80 L 237.90 829.00 L 242.40 826.10 L 247.90 823.30 L 254.50 820.40 L 268.20 815.70 L 285.30 811.40 L 297.20 809.10 L 310.20 807.20 L 324.50 805.50 L 338.70 804.40 L 353.70 803.70 L 369.50 803.40 L 385.30 803.70 L 400.30 804.40 L 414.50 805.50 L 428.80 807.20 L 441.80 809.10 L 453.70 811.40 L 470.80 815.70 L 484.50 820.40 L 491.10 823.30 L 496.60 826.10 L 501.10 829.00 L 504.70 831.80 L 507.50 834.50 L 509.50 837.20 L 510.90 839.80 L 511.70 842.30 L 512.00 844.90 Z" fill="#e1ebfa" fill-rule="nonzero" group-id="1" id="椭圆_798" node-id="29" stroke="none" target-height="83" target-width="285" target-x="227" target-y="803.4"></path><path d="M 310.00 137.60 L 850.00 137.60 L 853.30 137.90 L 856.30 138.70 L 859.10 140.00 L 861.60 141.80 L 863.80 144.00 L 865.50 146.50 L 866.90 149.30 L 867.70 152.30 L 868.00 155.60 L 868.00 530.60 L 867.70 533.90 L 866.90 536.90 L 865.50 539.70 L 863.80 542.20 L 861.60 544.30 L 859.10 546.10 L 856.30 547.50 L 853.30 548.30 L 850.00 548.60 L 310.00 548.60 L 306.70 548.30 L 303.70 547.50 L 300.90 546.10 L 298.40 544.30 L 296.20 542.20 L 294.50 539.70 L 293.10 536.90 L 292.30 533.90 L 292.00 530.60 L 292.00 155.60 L 292.30 152.30 L 293.10 149.30 L 294.50 146.50 L 296.20 144.00 L 298.40 141.80 L 300.90 140.00 L 303.70 138.70 L 306.70 137.90 L 310.00 137.60 Z" fill="#d8e6fd" fill-rule="nonzero" group-id="2,7" id="矩形_2391" node-id="31" stroke="none" target-height="410.99997" target-width="576" target-x="292" target-y="137.6"></path><path d="M 310.00 137.60 L 850.00 137.60 L 853.30 137.90 L 856.30 138.70 L 859.10 140.00 L 861.60 141.80 L 863.80 144.00 L 865.50 146.50 L 866.90 149.30 L 867.70 152.30 L 868.00 155.60 L 868.00 185.60 L 292.00 185.60 L 292.00 155.60 L 292.30 152.30 L 293.10 149.30 L 294.50 146.50 L 296.20 144.00 L 298.40 141.80 L 300.90 140.00 L 303.70 138.70 L 306.70 137.90 L 310.00 137.60 Z" fill="#c6dbfc" fill-rule="nonzero" group-id="2,8" id="矩形_2392" node-id="32" stroke="none" target-height="48" target-width="576" target-x="292" target-y="137.6"></path><path d="M 335.00 165.10 L 334.40 168.40 L 333.70 169.90 L 332.20 171.80 L 330.30 173.30 L 328.80 174.00 L 325.50 174.60 L 322.20 174.00 L 320.70 173.30 L 318.80 171.80 L 317.30 169.90 L 316.20 166.80 L 316.00 165.10 L 316.60 161.80 L 317.30 160.30 L 318.80 158.40 L 320.70 156.90 L 322.20 156.20 L 325.50 155.60 L 328.80 156.20 L 330.30 156.90 L 332.20 158.40 L 333.70 160.30 L 334.40 161.80 L 335.00 165.10 Z" fill="#ffffff" fill-rule="nonzero" group-id="2,9" id="椭圆_695" node-id="33" stroke="none" target-height="19" target-width="19" target-x="316" target-y="155.6"></path><path d="M 365.00 165.10 L 364.40 168.40 L 363.70 169.90 L 362.20 171.80 L 360.30 173.30 L 358.80 174.00 L 355.50 174.60 L 352.20 174.00 L 350.70 173.30 L 348.80 171.80 L 347.30 169.90 L 346.60 168.40 L 346.00 165.10 L 346.60 161.80 L 347.30 160.30 L 348.80 158.40 L 350.70 156.90 L 352.20 156.20 L 355.50 155.60 L 358.80 156.20 L 360.30 156.90 L 362.20 158.40 L 363.70 160.30 L 364.40 161.80 L 365.00 165.10 Z" fill="#ffffff" fill-rule="nonzero" group-id="2,10" id="椭圆_696" node-id="34" stroke="none" target-height="19" target-width="19" target-x="346" target-y="155.6"></path><path d="M 395.00 165.10 L 394.40 168.40 L 393.70 169.90 L 392.20 171.80 L 390.30 173.30 L 388.80 174.00 L 385.50 174.60 L 382.20 174.00 L 380.70 173.30 L 378.80 171.80 L 377.30 169.90 L 376.20 166.80 L 376.00 165.10 L 376.60 161.80 L 377.30 160.30 L 378.80 158.40 L 380.70 156.90 L 382.20 156.20 L 385.50 155.60 L 388.80 156.20 L 390.30 156.90 L 392.20 158.40 L 393.70 160.30 L 394.40 161.80 L 395.00 165.10 Z" fill="#ffffff" fill-rule="nonzero" group-id="2,11" id="椭圆_697" node-id="35" stroke="none" target-height="19" target-width="19" target-x="376" target-y="155.6"></path><path d="M 235.00 246.60 L 775.00 246.60 L 778.30 246.90 L 781.30 247.70 L 784.10 249.00 L 786.60 250.80 L 788.80 253.00 L 790.50 255.50 L 791.90 258.30 L 792.70 261.30 L 793.00 264.60 L 793.00 685.60 L 217.00 685.60 L 217.00 264.60 L 217.30 261.30 L 218.10 258.30 L 219.50 255.50 L 221.20 253.00 L 223.40 250.80 L 225.90 249.00 L 228.70 247.70 L 231.70 246.90 L 235.00 246.60 Z" fill="#edf3fd" fill-rule="nonzero" group-id="3,12" id="矩形_2391-2" node-id="37" stroke="none" target-height="438.99997" target-width="576" target-x="217" target-y="246.6"></path><path d="M 235.00 246.60 L 775.00 246.60 L 778.30 246.90 L 781.30 247.70 L 784.10 249.00 L 786.60 250.80 L 788.80 253.00 L 790.50 255.50 L 791.90 258.30 L 792.70 261.30 L 793.00 264.60 L 793.00 294.60 L 217.00 294.60 L 217.00 264.60 L 217.30 261.30 L 218.10 258.30 L 219.50 255.50 L 221.20 253.00 L 223.40 250.80 L 225.90 249.00 L 228.70 247.70 L 231.70 246.90 L 235.00 246.60 Z" fill="#307fff" fill-rule="nonzero" group-id="3,13" id="矩形_2392-2" node-id="38" stroke="none" target-height="48" target-width="576" target-x="217" target-y="246.6"></path><path d="M 260.00 274.10 L 259.40 277.40 L 258.70 278.90 L 257.20 280.80 L 255.30 282.30 L 253.80 283.00 L 250.50 283.60 L 247.20 283.00 L 245.70 282.30 L 243.80 280.80 L 242.30 278.90 L 241.20 275.80 L 241.00 274.10 L 241.60 270.80 L 242.30 269.30 L 243.80 267.40 L 245.70 265.90 L 247.20 265.20 L 250.50 264.60 L 253.80 265.20 L 255.30 265.90 L 257.20 267.40 L 258.70 269.30 L 259.40 270.80 L 260.00 274.10 Z" fill="#ffffff" fill-rule="nonzero" group-id="3,14" id="椭圆_695-2" node-id="39" stroke="none" target-height="19" target-width="19" target-x="241" target-y="264.6"></path><path d="M 290.00 274.10 L 289.40 277.40 L 288.70 278.90 L 287.20 280.80 L 285.30 282.30 L 283.80 283.00 L 280.50 283.60 L 277.20 283.00 L 275.70 282.30 L 273.80 280.80 L 272.30 278.90 L 271.20 275.80 L 271.00 274.10 L 271.60 270.80 L 272.30 269.30 L 273.80 267.40 L 275.70 265.90 L 277.20 265.20 L 280.50 264.60 L 283.80 265.20 L 285.30 265.90 L 287.20 267.40 L 288.70 269.30 L 289.40 270.80 L 290.00 274.10 Z" fill="#ffffff" fill-rule="nonzero" group-id="3,15" id="椭圆_696-2" node-id="40" stroke="none" target-height="19" target-width="19" target-x="271" target-y="264.6"></path><path d="M 320.00 274.10 L 319.40 277.40 L 318.70 278.90 L 317.20 280.80 L 315.30 282.30 L 313.80 283.00 L 310.50 283.60 L 307.20 283.00 L 305.70 282.30 L 303.80 280.80 L 302.30 278.90 L 301.60 277.40 L 301.00 274.10 L 301.60 270.80 L 302.30 269.30 L 303.80 267.40 L 305.70 265.90 L 307.20 265.20 L 310.50 264.60 L 313.80 265.20 L 315.30 265.90 L 317.20 267.40 L 318.70 269.30 L 319.40 270.80 L 320.00 274.10 Z" fill="#ffffff" fill-rule="nonzero" group-id="3,16" id="椭圆_697-2" node-id="41" stroke="none" target-height="19" target-width="19" target-x="301" target-y="264.6"></path><path d="M 256.00 331.60 L 758.00 331.60 L 758.00 642.60 L 256.00 642.60 Z" fill="#e5eaf5" fill-rule="nonzero" group-id="3,17" id="矩形_2393" node-id="42" stroke="none" target-height="310.99997" target-width="502" target-x="256" target-y="331.6"></path><path d="M 392.00 378.60 L 527.00 378.60 L 527.00 514.60 L 392.00 514.60 Z" fill="#ffffff" fill-rule="nonzero" filter="url(#矩形_2394)" group-id="3,18,40" id="矩形_2394-2" node-id="44" stroke="none" target-height="135.99997" target-width="135" target-x="392" target-y="378.6"></path><path d="M 477.40 479.30 L 409.50 601.40 L 544.20 601.40 Z" fill="#f1f5f9" fill-rule="nonzero" filter="url(#路径_1157)" group-id="3,19,41" id="路径_1157-2" node-id="46" stroke="none" target-height="122.10004" target-width="134.70001" target-x="409.5" target-y="479.3"></path><path d="M 654.00 485.10 L 653.80 490.90 L 653.10 496.40 L 652.00 501.80 L 650.50 507.00 L 648.50 512.20 L 646.20 517.00 L 643.60 521.70 L 640.60 526.10 L 637.30 530.30 L 633.60 534.20 L 629.70 537.80 L 625.50 541.20 L 621.10 544.20 L 616.50 546.80 L 611.60 549.10 L 606.50 551.00 L 601.20 552.60 L 595.80 553.70 L 590.30 554.30 L 584.50 554.60 L 578.70 554.30 L 573.20 553.70 L 567.80 552.60 L 562.50 551.00 L 557.40 549.10 L 552.50 546.80 L 547.90 544.20 L 543.50 541.20 L 539.30 537.80 L 535.40 534.20 L 531.70 530.30 L 528.40 526.10 L 525.40 521.70 L 522.80 517.00 L 520.50 512.20 L 518.50 507.00 L 517.00 501.80 L 515.90 496.40 L 515.20 490.90 L 515.00 485.10 L 515.20 479.30 L 515.90 473.70 L 517.00 468.30 L 518.50 463.10 L 520.50 458.00 L 522.80 453.10 L 525.40 448.50 L 528.40 444.00 L 531.70 439.80 L 535.40 435.90 L 539.30 432.30 L 543.50 429.00 L 547.90 426.00 L 552.50 423.40 L 557.40 421.10 L 562.50 419.10 L 567.80 417.60 L 573.20 416.50 L 578.70 415.80 L 584.50 415.60 L 590.30 415.80 L 595.80 416.50 L 601.20 417.60 L 606.50 419.10 L 611.60 421.10 L 616.50 423.40 L 621.10 426.00 L 625.50 429.00 L 629.70 432.30 L 633.60 435.90 L 637.30 439.80 L 640.60 444.00 L 643.60 448.50 L 646.20 453.10 L 648.50 458.00 L 650.50 463.10 L 652.00 468.30 L 653.10 473.70 L 653.80 479.30 L 654.00 485.10 Z" fill="#f1f5f9" fill-rule="nonzero" filter="url(#椭圆_701)" group-id="3,20,42" id="椭圆_701-2" node-id="48" stroke="none" target-height="138.99997" target-width="139" target-x="515" target-y="415.6"></path><path d="M 594.00 381.10 L 593.70 384.30 L 592.90 387.20 L 591.60 389.90 L 589.90 392.40 L 587.80 394.50 L 585.30 396.20 L 582.60 397.50 L 579.70 398.30 L 576.50 398.60 L 573.30 398.30 L 570.40 397.50 L 567.70 396.20 L 565.20 394.50 L 563.10 392.40 L 561.40 389.90 L 560.10 387.20 L 559.30 384.30 L 559.00 381.10 L 559.30 377.90 L 560.10 375.00 L 561.40 372.20 L 563.10 369.80 L 565.20 367.70 L 567.70 366.00 L 570.40 364.70 L 573.30 363.90 L 576.50 363.60 L 579.70 363.90 L 582.60 364.70 L 585.30 366.00 L 587.80 367.70 L 589.90 369.80 L 591.60 372.20 L 592.90 375.00 L 593.70 377.90 L 594.00 381.10 Z" fill="#afcaf8" fill-rule="nonzero" group-id="3,21" id="椭圆_699" node-id="49" stroke="none" target-height="35" target-width="35" target-x="559" target-y="363.6"></path><path d="M 610.10 439.70 L 595.10 421.10 L 583.40 430.50 L 577.70 383.00 L 622.60 398.80 L 610.60 408.50 L 625.70 427.10 Z" fill="#2f7dff" fill-rule="nonzero" group-id="3,22" id="联合_298" node-id="50" stroke="none" target-height="56.700012" target-width="48" target-x="577.7" target-y="383"></path><path d="M 460.00 558.10 L 459.70 561.30 L 458.90 564.20 L 457.60 566.90 L 455.90 569.40 L 453.80 571.50 L 451.30 573.20 L 448.60 574.50 L 445.70 575.30 L 442.50 575.60 L 439.30 575.30 L 436.40 574.50 L 433.70 573.20 L 431.20 571.50 L 429.10 569.40 L 427.40 566.90 L 426.10 564.20 L 425.30 561.30 L 425.00 558.10 L 425.30 554.90 L 426.10 552.00 L 427.40 549.20 L 429.10 546.80 L 431.20 544.70 L 433.70 543.00 L 436.40 541.70 L 439.30 540.90 L 442.50 540.60 L 445.70 540.90 L 448.60 541.70 L 451.30 543.00 L 453.80 544.70 L 455.90 546.80 L 457.60 549.20 L 458.90 552.00 L 459.70 554.90 L 460.00 558.10 Z" fill="#a6ead4" fill-rule="nonzero" group-id="3,23" id="椭圆_700" node-id="51" stroke="none" target-height="35" target-width="35" target-x="425" target-y="540.6"></path><path d="M 477.20 618.70 L 462.20 600.10 L 450.50 609.50 L 444.80 562.00 L 489.80 577.80 L 477.70 587.50 L 492.80 606.10 Z" fill="#2cdc9a" fill-rule="nonzero" group-id="3,24" id="联合_299" node-id="52" stroke="none" target-height="56.700012" target-width="48" target-x="444.8" target-y="562"></path><path d="M 71.50 429.10 L 71.80 420.50 L 72.60 412.00 L 73.80 403.80 L 75.60 395.60 L 77.90 387.60 L 80.60 379.80 L 83.70 372.20 L 87.30 364.80 L 91.40 357.60 L 95.80 350.70 L 100.60 344.00 L 105.80 337.70 L 111.40 331.60 L 117.40 325.90 L 123.70 320.60 L 130.40 315.60 L 137.30 311.00 L 144.60 306.80 L 152.10 303.00 L 160.10 299.60 L 168.20 296.80 L 176.30 294.40 L 184.50 292.60 L 192.70 291.30 L 201.10 290.50 L 209.30 290.20 L 217.50 290.30 L 225.80 291.00 L 233.90 292.10 L 242.00 293.80 L 249.90 295.80 L 257.70 298.40 L 265.40 301.40 L 272.80 304.90 L 280.10 308.80 L 287.20 313.20 L 294.00 318.00 L 300.60 323.30 L 306.80 329.00 L 312.90 335.10 L 318.50 341.60 L 323.60 348.40 L 328.30 355.30 L 332.50 362.50 L 336.30 370.00 L 339.60 377.60 L 342.40 385.30 L 344.80 393.20 L 346.70 401.20 L 348.10 409.30 L 349.00 417.40 L 349.50 425.60 L 349.40 433.90 L 348.90 442.10 L 347.90 450.30 L 346.40 458.50 L 344.40 466.60 L 341.90 474.60 L 338.80 482.50 L 335.30 490.40 L 354.80 552.80 L 295.90 538.80 L 289.40 543.50 L 282.80 547.80 L 276.10 551.70 L 269.10 555.10 L 262.10 558.20 L 254.80 560.80 L 247.40 563.10 L 240.00 564.90 L 232.50 566.30 L 224.90 567.30 L 217.20 567.90 L 209.60 568.10 L 201.90 567.80 L 194.30 567.10 L 186.60 566.00 L 179.00 564.50 L 171.50 562.50 L 164.10 560.10 L 156.80 557.30 L 149.50 554.00 L 142.40 550.20 L 135.60 546.20 L 129.20 541.80 L 123.00 537.10 L 117.20 532.10 L 111.60 526.70 L 106.30 521.10 L 101.40 515.20 L 96.80 509.10 L 92.60 502.70 L 88.70 496.10 L 85.20 489.30 L 82.10 482.30 L 79.30 475.10 L 77.00 467.70 L 75.00 460.20 L 73.50 452.60 L 72.40 444.90 L 71.70 437.10 L 71.50 429.10 Z" fill="#34dc9d" fill-rule="nonzero" group-id="4,25" id="联合_300" node-id="54" stroke="none" target-height="277.89996" target-width="283.3" target-x="71.5" target-y="290.2"></path><path d="M 210.00 425.60 L 216.10 425.90 L 221.80 426.90 L 227.40 428.40 L 232.70 430.50 L 237.80 433.10 L 242.50 436.20 L 246.90 439.80 L 250.80 443.70 L 254.40 448.10 L 257.50 452.80 L 260.10 457.80 L 262.20 463.20 L 263.70 468.70 L 264.70 474.50 L 265.00 480.60 L 265.00 503.60 L 155.00 503.60 L 155.00 480.60 L 155.30 474.50 L 156.30 468.70 L 157.80 463.20 L 159.90 457.80 L 162.50 452.80 L 165.60 448.10 L 169.20 443.70 L 173.10 439.80 L 177.50 436.20 L 182.20 433.10 L 187.30 430.50 L 192.60 428.40 L 198.20 426.90 L 203.90 425.90 L 210.00 425.60 Z" fill="#eff0f4" fill-rule="nonzero" group-id="4,26" id="矩形_2397" node-id="55" stroke="none" target-height="78" target-width="110" target-x="155" target-y="425.6"></path><path d="M 259.00 398.60 L 258.70 403.50 L 258.00 408.10 L 256.90 412.60 L 255.30 416.90 L 253.30 421.00 L 251.00 424.90 L 248.30 428.50 L 245.20 431.80 L 241.90 434.90 L 238.30 437.50 L 234.40 439.90 L 230.30 441.90 L 226.00 443.50 L 221.50 444.60 L 216.90 445.30 L 212.00 445.60 L 207.10 445.30 L 202.50 444.60 L 198.00 443.50 L 193.70 441.90 L 189.60 439.90 L 185.70 437.50 L 182.10 434.90 L 178.80 431.80 L 175.70 428.50 L 173.00 424.90 L 170.70 421.00 L 168.70 416.90 L 167.10 412.60 L 166.00 408.10 L 165.30 403.50 L 165.00 398.60 L 165.30 393.70 L 166.00 389.00 L 167.10 384.60 L 168.70 380.30 L 170.70 376.10 L 173.00 372.30 L 175.70 368.70 L 178.80 365.30 L 182.10 362.30 L 185.70 359.60 L 189.60 357.30 L 193.70 355.30 L 198.00 353.70 L 202.50 352.50 L 207.10 351.80 L 212.00 351.60 L 216.90 351.80 L 221.50 352.50 L 226.00 353.70 L 230.30 355.30 L 234.40 357.30 L 238.30 359.60 L 241.90 362.30 L 245.20 365.30 L 248.30 368.70 L 251.00 372.30 L 253.30 376.10 L 255.30 380.30 L 256.90 384.60 L 258.00 389.00 L 258.70 393.70 L 259.00 398.60 Z" fill="#eff0f4" fill-rule="nonzero" group-id="4,27" id="椭圆_703" node-id="56" stroke="none" target-height="94" target-width="94" target-x="165" target-y="351.6"></path><path d="M 207.00 387.60 L 206.80 389.20 L 206.20 390.60 L 205.20 391.80 L 202.60 393.40 L 201.00 393.60 L 199.40 393.40 L 198.00 392.80 L 195.80 390.60 L 195.20 389.20 L 195.00 387.60 L 195.20 386.00 L 195.80 384.60 L 198.00 382.40 L 201.00 381.60 L 202.60 381.80 L 204.00 382.40 L 205.20 383.30 L 206.20 384.60 L 206.80 386.00 L 207.00 387.60 Z" fill="#cacbcb" fill-rule="nonzero" group-id="4,28" id="椭圆_704" node-id="57" stroke="none" target-height="12" target-width="12" target-x="195" target-y="381.6"></path><path d="M 229.00 387.60 L 228.80 389.20 L 228.20 390.60 L 227.20 391.80 L 226.00 392.80 L 224.60 393.40 L 223.00 393.60 L 221.40 393.40 L 220.00 392.80 L 217.80 390.60 L 217.20 389.20 L 217.00 387.60 L 217.20 386.00 L 217.80 384.60 L 220.00 382.40 L 221.40 381.80 L 223.00 381.60 L 224.60 381.80 L 226.00 382.40 L 227.20 383.30 L 228.20 384.60 L 228.80 386.00 L 229.00 387.60 Z" fill="#cacbcb" fill-rule="nonzero" group-id="4,29" id="椭圆_705" node-id="58" stroke="none" target-height="12" target-width="12" target-x="217" target-y="381.6"></path><path d="M 232.00 401.30 L 229.50 406.50 L 225.80 410.70 L 221.00 413.70 L 218.40 414.70 L 215.60 415.30 L 212.70 415.60 L 209.80 415.40 L 207.00 414.80 L 201.80 412.60 L 197.50 409.00 L 195.70 406.80 L 193.10 401.70" fill="none" group-id="4,30" id="路径_1160" node-id="59" stroke="#cbcccc" stroke-linecap="round" stroke-width="6" target-height="14.300018" target-width="38.899994" target-x="193.1" target-y="401.3"></path><path d="M 674.50 525.10 L 674.70 517.20 L 675.40 509.30 L 676.50 501.50 L 678.00 493.80 L 680.00 486.20 L 682.40 478.70 L 685.20 471.40 L 688.50 464.20 L 669.00 401.60 L 727.80 415.60 L 734.10 411.00 L 740.50 406.80 L 747.10 403.00 L 753.70 399.60 L 760.60 396.50 L 769.30 393.30 L 778.20 390.60 L 787.20 388.60 L 796.30 387.10 L 805.50 386.30 L 814.60 386.10 L 823.80 386.50 L 832.90 387.40 L 842.00 389.00 L 850.90 391.20 L 859.70 394.00 L 868.50 397.40 L 875.20 400.50 L 881.90 404.00 L 888.30 407.90 L 894.70 412.30 L 900.90 417.00 L 906.80 422.10 L 912.40 427.40 L 917.60 432.90 L 922.40 438.60 L 926.90 444.60 L 932.00 452.40 L 936.60 460.50 L 940.60 468.70 L 944.00 477.30 L 946.90 486.00 L 949.20 494.90 L 950.90 503.90 L 952.00 513.10 L 952.50 522.20 L 952.40 531.40 L 951.60 540.70 L 950.30 549.90 L 948.70 557.20 L 946.80 564.50 L 944.50 571.70 L 941.70 578.80 L 938.50 585.90 L 934.80 592.90 L 930.90 599.50 L 926.70 605.70 L 922.20 611.70 L 917.40 617.40 L 910.90 624.20 L 904.10 630.50 L 896.90 636.30 L 889.40 641.50 L 881.50 646.30 L 873.40 650.50 L 865.00 654.20 L 856.30 657.30 L 847.50 659.90 L 838.50 661.80 L 829.30 663.20 L 820.00 663.90 L 812.50 664.10 L 805.10 663.80 L 797.50 663.20 L 789.90 662.10 L 782.30 660.50 L 774.70 658.50 L 767.40 656.20 L 760.30 653.50 L 753.50 650.50 L 746.80 647.10 L 738.80 642.30 L 731.10 637.10 L 723.90 631.40 L 717.10 625.20 L 710.70 618.60 L 704.70 611.60 L 699.30 604.30 L 694.30 596.50 L 689.80 588.50 L 685.90 580.20 L 682.50 571.60 L 679.70 562.60 L 677.80 555.40 L 676.40 548.00 L 675.40 540.50 L 674.70 532.90 L 674.50 525.10 Z" fill="#307eff" fill-rule="nonzero" group-id="5,31" id="联合_300-2" node-id="61" stroke="none" target-height="277.99997" target-width="283.5" target-x="669" target-y="386.1"></path><path d="M 808.00 521.60 L 814.10 521.90 L 819.80 522.90 L 825.40 524.40 L 830.70 526.50 L 835.80 529.10 L 840.50 532.20 L 844.90 535.80 L 848.80 539.70 L 852.40 544.10 L 855.50 548.80 L 858.10 553.80 L 860.20 559.20 L 861.70 564.70 L 862.70 570.50 L 863.00 576.60 L 863.00 599.60 L 753.00 599.60 L 753.00 576.60 L 753.30 570.50 L 754.30 564.70 L 755.80 559.20 L 757.90 553.80 L 760.50 548.80 L 763.60 544.10 L 767.20 539.70 L 771.10 535.80 L 775.50 532.20 L 780.20 529.10 L 785.30 526.50 L 790.60 524.40 L 796.20 522.90 L 801.90 521.90 L 808.00 521.60 Z" fill="#eff0f4" fill-rule="nonzero" group-id="5,32" id="矩形_2397-2" node-id="62" stroke="none" target-height="78" target-width="110" target-x="753" target-y="521.6"></path><path d="M 857.00 494.60 L 856.70 499.50 L 856.00 504.10 L 854.90 508.60 L 853.30 512.90 L 851.30 517.00 L 849.00 520.90 L 846.30 524.50 L 843.20 527.80 L 839.90 530.90 L 836.30 533.50 L 832.40 535.90 L 828.30 537.90 L 824.00 539.50 L 819.50 540.60 L 814.90 541.30 L 810.00 541.60 L 805.10 541.30 L 800.50 540.60 L 796.00 539.50 L 791.70 537.90 L 787.60 535.90 L 783.70 533.50 L 780.10 530.90 L 776.80 527.80 L 773.70 524.50 L 771.00 520.90 L 768.70 517.00 L 766.70 512.90 L 765.10 508.60 L 764.00 504.10 L 763.30 499.50 L 763.00 494.60 L 763.30 489.70 L 764.00 485.00 L 765.10 480.60 L 766.70 476.30 L 768.70 472.10 L 771.00 468.30 L 773.70 464.70 L 776.80 461.30 L 780.10 458.30 L 783.70 455.60 L 787.60 453.30 L 791.70 451.30 L 796.00 449.70 L 800.50 448.50 L 805.10 447.80 L 810.00 447.60 L 814.90 447.80 L 819.50 448.50 L 824.00 449.70 L 828.30 451.30 L 832.40 453.30 L 836.30 455.60 L 839.90 458.30 L 843.20 461.30 L 846.30 464.70 L 849.00 468.30 L 851.30 472.10 L 853.30 476.30 L 854.90 480.60 L 856.00 485.00 L 856.70 489.70 L 857.00 494.60 Z" fill="#eff0f4" fill-rule="nonzero" group-id="5,33" id="椭圆_703-2" node-id="63" stroke="none" target-height="93.99997" target-width="94" target-x="763" target-y="447.6"></path><path d="M 805.00 483.60 L 804.80 485.20 L 804.20 486.60 L 803.20 487.80 L 802.00 488.80 L 800.60 489.40 L 799.00 489.60 L 796.00 488.80 L 793.80 486.60 L 793.20 485.20 L 793.00 483.60 L 793.20 482.00 L 793.80 480.60 L 796.00 478.40 L 797.40 477.80 L 799.00 477.60 L 800.60 477.80 L 803.20 479.30 L 804.20 480.60 L 804.80 482.00 L 805.00 483.60 Z" fill="#c9cac9" fill-rule="nonzero" group-id="5,34" id="椭圆_704-2" node-id="64" stroke="none" target-height="12" target-width="12" target-x="793" target-y="477.6"></path><path d="M 827.00 483.60 L 826.80 485.20 L 825.20 487.80 L 824.00 488.80 L 822.60 489.40 L 821.00 489.60 L 818.00 488.80 L 815.80 486.60 L 815.20 485.20 L 815.00 483.60 L 815.20 482.00 L 815.80 480.60 L 818.00 478.40 L 819.40 477.80 L 821.00 477.60 L 822.60 477.80 L 825.20 479.30 L 826.20 480.60 L 826.80 482.00 L 827.00 483.60 Z" fill="#c9cac9" fill-rule="nonzero" group-id="5,35" id="椭圆_705-2" node-id="65" stroke="none" target-height="12" target-width="12" target-x="815" target-y="477.6"></path><path d="M 830.00 497.30 L 827.50 502.50 L 823.80 506.70 L 819.00 509.70 L 816.40 510.70 L 810.70 511.60 L 805.00 510.80 L 802.30 509.90 L 797.50 507.00 L 793.70 502.80 L 792.20 500.40 L 791.10 497.70" fill="none" group-id="5,36" id="路径_1160-2" node-id="66" stroke="#cacbcb" stroke-linecap="round" stroke-width="6" target-height="14.300018" target-width="38.900024" target-x="791.1" target-y="497.3"></path><path d="M 345.20 364.70 L 345.20 394.30 L 365.80 392.20 L 362.50 363.40 Z" fill="#e98d85" fill-rule="nonzero" group-id="6,37,43" id="路径_1354" node-id="69" stroke="none" target-height="30.899994" target-width="20.599976" target-x="345.2" target-y="363.4"></path><path d="M 329.00 312.60 L 323.30 336.40 L 321.70 345.80 L 321.70 353.30 L 322.30 357.10 L 323.90 361.70 L 325.20 363.60 L 326.70 365.20 L 328.70 366.40 L 331.10 367.30 L 336.40 367.70 L 343.30 366.60 L 347.00 365.50 L 355.30 361.90 L 373.50 335.70 L 365.00 322.60 L 340.90 305.10 Z" fill="#fca8a3" fill-rule="nonzero" group-id="6,37,44" id="路径_1355" node-id="70" stroke="none" target-height="62.600006" target-width="51.799988" target-x="321.7" target-y="305.1"></path><path d="M 336.80 311.30 L 334.50 313.30 L 330.70 315.50 L 327.10 316.90 L 325.70 317.10 L 325.20 316.90 L 322.70 312.10 L 320.30 304.90 L 319.40 300.00 L 318.90 292.80 L 319.70 284.30 L 322.10 274.50 L 324.00 276.20 L 328.90 279.40 L 336.00 283.10 L 340.00 284.70 L 344.40 286.10 L 348.80 287.10 L 359.00 287.80 L 365.10 288.60 L 371.10 290.00 L 377.00 291.80 L 380.70 293.40 L 387.20 297.30 L 390.00 299.70 L 392.30 302.30 L 394.10 305.10 L 396.10 309.80 L 397.70 314.90 L 398.40 318.40 L 398.90 325.30 L 398.10 332.10 L 397.20 335.30 L 396.00 338.40 L 394.30 341.10 L 392.30 343.70 L 378.40 357.40 L 364.00 370.90 L 358.70 369.30 L 354.10 367.10 L 352.00 365.60 L 349.30 362.40 L 348.30 359.20 L 348.20 356.20 L 348.50 354.20 L 349.30 352.60 L 350.20 351.40 L 356.20 347.80 L 357.90 345.90 L 358.60 342.50 L 357.90 337.60 L 357.00 335.20 L 354.80 331.10 L 353.20 329.30 L 342.30 319.50 L 339.80 316.80 L 338.40 314.80 L 336.80 311.30 Z" fill="#191e55" fill-rule="nonzero" group-id="6,37,45" id="路径_1356" node-id="71" stroke="none" target-height="96.399994" target-width="80" target-x="318.9" target-y="274.5"></path><path d="M 463.90 417.60 L 465.60 411.40 L 467.90 405.80 L 469.50 403.10 L 473.20 398.20 L 474.30 395.70 L 475.30 390.60 L 475.70 383.60 L 476.40 380.80 L 478.20 379.10 L 480.00 378.30 L 482.10 378.00 L 484.30 378.10 L 487.80 379.50 L 490.00 381.80 L 491.10 384.20 L 491.80 387.00 L 492.00 390.10 L 491.50 396.60 L 490.80 399.80 L 488.80 405.30 L 482.30 417.30 L 479.20 422.40 L 477.90 424.20 L 477.30 424.70 L 476.80 424.70 L 472.10 422.40 L 463.90 417.60 Z" fill="#fbafa2" fill-rule="nonzero" group-id="6,38,46" id="路径_1358" node-id="73" stroke="none" target-height="46.700012" target-width="28.100006" target-x="463.9" target-y="378"></path><path d="M 396.60 395.30 L 400.50 402.10 L 405.70 412.80 L 408.60 420.90 L 410.60 429.30 L 412.40 434.50 L 416.90 444.60 L 419.40 449.40 L 424.60 457.40 L 429.60 463.10 L 432.00 465.10 L 433.70 466.00 L 435.30 466.20 L 436.90 465.90 L 438.30 465.00 L 440.00 463.20 L 441.90 460.10 L 462.20 417.20 L 464.40 416.70 L 468.90 416.80 L 474.10 417.80 L 476.30 418.90 L 478.00 420.30 L 478.80 421.50 L 479.20 422.90 L 479.10 424.60 L 477.60 431.40 L 474.60 441.80 L 468.30 460.30 L 463.50 472.10 L 458.50 481.50 L 456.30 484.50 L 450.40 490.90 L 447.20 493.90 L 443.80 496.40 L 441.40 497.80 L 436.30 499.60 L 433.60 499.90 L 430.80 499.80 L 427.80 499.10 L 424.90 497.90 L 421.80 496.00 L 418.20 493.20 L 405.40 481.20 L 401.30 476.90 L 397.70 472.40 L 394.30 409.20 Z" fill="#006bfd" fill-rule="nonzero" group-id="6,38,47" id="路径_1357" node-id="74" stroke="none" target-height="104.600006" target-width="84.900024" target-x="394.3" target-y="395.3"></path><path d="M 344.50 387.60 L 350.50 389.70 L 353.00 390.20 L 358.60 390.30 L 363.20 388.90 L 366.60 386.30 L 369.00 386.10 L 380.30 387.10 L 386.00 388.20 L 389.70 389.40 L 394.00 392.20 L 396.50 394.10 L 400.30 398.30 L 402.50 402.70 L 404.30 407.90 L 405.70 413.50 L 406.50 420.90 L 406.50 425.40 L 405.50 456.10 L 405.50 503.70 L 405.90 515.30 L 406.70 527.80 L 410.30 565.50 L 400.20 570.60 L 389.30 574.70 L 383.00 576.40 L 376.10 577.60 L 371.40 578.10 L 361.70 577.80 L 355.60 576.90 L 344.40 574.40 L 336.70 572.00 L 330.30 569.70 L 324.50 567.30 L 317.20 563.70 L 318.70 522.50 L 318.80 493.40 L 318.20 483.20 L 316.70 471.70 L 314.60 460.20 L 311.50 445.70 L 311.00 441.40 L 310.50 431.60 L 310.40 420.80 L 310.80 410.70 L 311.50 402.60 L 312.10 399.60 L 312.60 398.20 L 313.50 396.90 L 317.50 393.70 L 320.20 392.30 L 328.00 389.70 L 332.50 388.70 L 344.50 387.60 Z" fill="#439dfe" fill-rule="nonzero" group-id="6,38,48" id="路径_1359" node-id="75" stroke="none" target-height="191.99997" target-width="99.899994" target-x="310.4" target-y="386.1"></path><g clip-path="url(#clip-path)" group-id="6,38,49" id="蒙版组_11" node-id="76"><path d="M 327.00 416.10 L 325.10 436.10 L 323.60 458.80 L 323.60 472.60 L 324.80 483.90 L 327.10 496.80 L 328.60 503.40 L 332.20 515.70 L 334.40 521.30 L 336.70 525.80 L 338.50 528.50 L 340.20 530.60 L 344.50 534.20 L 346.60 536.40 L 348.40 538.80 L 350.40 542.70 L 351.80 546.60 L 352.70 550.50 L 353.20 557.10 L 351.70 578.80 L 312.30 570.90 L 310.50 515.30 L 299.00 436.70 L 303.10 420.00 Z" fill="#2588fd" fill-rule="nonzero" group-id="6,38,49,60" id="路径_1360" node-id="77" stroke="none" target-height="162.69998" target-width="54.200012" target-x="299" target-y="416.1"></path><path d="M 376.60 382.70 L 381.70 388.20 L 386.00 394.30 L 387.90 397.90 L 389.50 402.00 L 390.60 407.90 L 389.90 437.80 L 389.00 456.20 L 387.50 475.20 L 385.30 492.50 L 383.90 500.20 L 369.90 546.50 L 358.60 585.50 L 411.60 586.80 L 422.30 561.40 L 416.40 472.40 L 416.40 405.10 L 396.90 382.70 Z" fill="#2588fd" fill-rule="nonzero" group-id="6,38,49,61" id="路径_1361" node-id="78" stroke="none" target-height="204.09998" target-width="63.69998" target-x="358.6" target-y="382.7"></path></g><path d="M 327.60 553.70 L 329.30 563.40 L 329.20 569.30 L 328.60 571.60 L 324.40 580.30 L 322.70 584.90 L 322.50 588.20 L 322.90 589.90 L 324.40 592.60 L 325.50 593.60 L 326.80 594.20 L 328.50 594.50 L 330.10 594.20 L 332.20 593.30 L 334.80 591.60 L 338.50 588.50 L 342.00 584.90 L 346.10 579.40 L 347.80 576.30 L 349.00 573.00 L 349.80 569.20 L 350.10 565.00 L 350.00 561.90 L 348.90 556.90 L 347.60 553.60 L 346.10 551.00 L 344.30 548.70 L 339.50 543.80 L 337.90 543.10 L 335.40 544.30 L 333.80 545.70 L 330.80 549.20 L 327.60 553.70 Z" fill="#fbafa2" fill-rule="nonzero" group-id="6,38,50" id="路径_1364" node-id="79" stroke="none" target-height="51.400024" target-width="27.600006" target-x="322.5" target-y="543.1"></path><path d="M 313.70 396.60 L 316.70 397.80 L 320.90 400.40 L 323.10 402.30 L 325.10 404.60 L 326.80 407.60 L 328.10 412.20 L 328.30 415.00 L 328.10 422.00 L 327.40 427.90 L 326.30 433.40 L 324.80 438.30 L 322.70 442.80 L 309.60 462.60 L 305.20 471.00 L 304.20 473.70 L 303.20 478.30 L 303.60 482.80 L 305.70 489.60 L 307.70 493.90 L 312.40 502.00 L 315.00 505.70 L 342.30 540.40 L 339.90 546.50 L 338.50 549.00 L 336.70 551.40 L 333.80 554.00 L 330.30 555.60 L 328.40 555.70 L 326.10 555.40 L 323.60 553.70 L 317.70 548.40 L 313.20 543.60 L 303.70 531.80 L 284.40 504.40 L 280.80 497.60 L 279.60 493.90 L 278.70 490.00 L 278.00 484.70 L 277.80 479.20 L 278.10 473.50 L 279.90 462.40 L 281.40 456.90 L 283.00 452.70 L 285.50 446.90 L 292.00 434.20 L 299.40 420.80 L 313.70 396.60 Z" fill="#006bfd" fill-rule="nonzero" group-id="6,38,51" id="路径_1363" node-id="80" stroke="none" target-height="159.1" target-width="64.5" target-x="277.8" target-y="396.6"></path><path d="M 319.90 560.80 L 322.50 693.00 L 324.80 732.70 L 330.30 802.40 L 382.40 802.40 L 377.20 715.10 L 386.20 739.80 L 397.70 769.20 L 406.40 788.30 L 410.50 795.20 L 412.80 797.60 L 414.40 798.10 L 416.40 798.30 L 419.00 797.90 L 422.90 796.80 L 427.60 794.80 L 437.10 789.80 L 446.00 784.30 L 454.90 778.00 L 442.40 748.50 L 435.30 730.20 L 428.60 710.30 L 423.20 690.70 L 419.70 672.60 L 417.60 653.20 L 417.00 643.30 L 416.70 612.10 L 415.70 601.20 L 413.90 589.00 L 411.70 577.10 L 409.50 567.10 L 407.60 560.90 L 407.00 560.20 L 405.70 559.60 L 403.10 559.00 L 398.80 558.50 L 386.30 558.00 L 362.80 558.40 L 319.90 560.80 Z" fill="#1e2889" fill-rule="nonzero" group-id="6,39,52" id="路径_1365" node-id="82" stroke="none" target-height="244.40002" target-width="135" target-x="319.9" target-y="558"></path><g clip-path="url(#clip-path-2)" group-id="6,39,53" node-id="338"><path d="M 387.40 572.60 L 389.30 583.50 L 390.60 594.70 L 391.20 607.70 L 391.10 614.40 L 389.80 625.10 L 388.80 629.00 L 386.00 637.40 L 384.50 644.00 L 382.00 659.40 L 380.20 676.50 L 379.00 693.30 L 377.60 722.00 L 392.00 758.00 L 393.40 700.40 L 393.20 670.20 L 393.40 664.00 L 394.70 651.20 L 396.50 639.00 L 400.20 617.60 L 400.60 601.70 L 400.10 588.80 L 398.90 575.50 L 397.20 563.50 L 395.80 558.70 L 394.50 557.20 L 393.80 557.20 L 392.10 559.00 L 391.00 561.20 L 389.20 566.20 L 387.40 572.60 Z" fill="#162074" fill-rule="nonzero" group-id="6,39,53,62" id="路径_1366" node-id="84" stroke="none" target-height="200.79999" target-width="23" target-x="377.6" target-y="557.2"></path></g><path d="M 341.30 816.80 L 341.30 832.00 L 371.00 828.80 L 371.00 816.80 Z" fill="#fb8c79" fill-rule="nonzero" group-id="6,39,54" id="路径_1370" node-id="85" stroke="none" target-height="15.200012" target-width="29.700012" target-x="341.3" target-y="816.8"></path><path d="M 424.60 803.00 L 430.80 816.90 L 456.60 801.90 L 451.70 790.90 Z" fill="#fb8c79" fill-rule="nonzero" group-id="6,39,55" id="路径_1373" node-id="86" stroke="none" target-height="26" target-width="32" target-x="424.6" target-y="790.9"></path><path d="M 341.30 828.20 L 371.60 828.20 L 373.70 842.80 L 374.50 851.60 L 374.20 856.10 L 373.50 857.90 L 372.70 858.90 L 369.80 860.60 L 368.10 861.20 L 362.50 861.70 L 313.60 860.60 L 305.90 860.30 L 304.10 859.80 L 302.70 859.10 L 301.60 857.90 L 300.40 854.90 L 300.20 853.00 L 300.60 850.20 L 301.60 847.40 L 302.60 845.70 L 305.30 843.10 L 308.00 841.70 L 311.10 840.60 L 324.50 837.80 L 330.10 836.00 L 334.00 833.70 L 341.30 828.20 Z" fill="#0640be" fill-rule="nonzero" group-id="6,39,56" id="路径_1371" node-id="87" stroke="none" target-height="33.5" target-width="74.29999" target-x="300.2" target-y="828.2"></path><path d="M 429.30 813.40 L 456.90 801.10 L 464.80 813.60 L 469.10 821.20 L 470.70 825.50 L 470.70 827.50 L 470.40 828.80 L 468.50 831.40 L 467.10 832.60 L 462.20 835.40 L 417.20 854.30 L 410.00 857.10 L 408.10 857.50 L 406.50 857.30 L 405.10 856.70 L 402.70 854.40 L 401.80 852.80 L 401.00 850.10 L 400.80 847.10 L 401.00 845.20 L 402.50 841.60 L 404.30 839.30 L 406.70 837.10 L 417.80 829.00 L 422.10 825.10 L 427.20 817.50 L 429.30 813.40 Z" fill="#0640be" fill-rule="nonzero" group-id="6,39,57" id="路径_1372" node-id="88" stroke="none" target-height="56.400024" target-width="69.900024" target-x="400.8" target-y="801.1"></path><path d="M 324.30 798.40 L 385.20 799.60 L 384.00 818.20 L 326.10 818.20 Z" fill="#181f55" fill-rule="nonzero" group-id="6,39,58" id="路径_1368" node-id="89" stroke="none" target-height="19.799988" target-width="60.900024" target-x="324.3" target-y="798.4"></path><path d="M 402.80 796.20 L 413.10 812.40 L 465.70 790.90 L 458.60 773.10 Z" fill="#181f55" fill-rule="nonzero" group-id="6,39,59" id="路径_1369" node-id="90" stroke="none" target-height="39.30005" target-width="62.900024" target-x="402.8" target-y="773.1"></path></g></svg>